<svg width="36" height="36" viewBox="0 0 36 36" fill="none" xmlns="http://www.w3.org/2000/svg">
<path fill-rule="evenodd" clip-rule="evenodd" d="M8.46967 8.46967C8.76256 8.17678 9.23744 8.17678 9.53033 8.46967L18 16.9393L26.4697 8.46967C26.7626 8.17678 27.2374 8.17678 27.5303 8.46967C27.8232 8.76256 27.8232 9.23744 27.5303 9.53033L19.0607 18L27.5303 26.4697C27.8232 26.7626 27.8232 27.2374 27.5303 27.5303C27.2374 27.8232 26.7626 27.8232 26.4697 27.5303L18 19.0607L9.53033 27.5303C9.23744 27.8232 8.76256 27.8232 8.46967 27.5303C8.17678 27.2374 8.17678 26.7626 8.46967 26.4697L16.9393 18L8.46967 9.53033C8.17678 9.23744 8.17678 8.76256 8.46967 8.46967Z" fill="#ee6178"/>
</svg>
