<svg width="172" height="34" viewBox="0 0 172 34" fill="none" xmlns="http://www.w3.org/2000/svg">
<path d="M156.291 28.8691C153.324 28.8691 150.645 28.4152 148.254 27.5074C145.863 26.5996 143.97 25.2601 142.575 23.4888C141.202 21.6954 140.516 19.5478 140.516 17.0459C140.516 14.5661 141.213 12.4406 142.608 10.6693C144.003 8.89803 145.885 7.55851 148.254 6.65073C150.645 5.72082 153.324 5.25586 156.291 5.25586C159.236 5.25586 161.893 5.72082 164.262 6.65073C166.653 7.55851 168.535 8.89803 169.908 10.6693C171.302 12.4406 172 14.5661 172 17.0459C172 19.5478 171.302 21.6954 169.908 23.4888C168.535 25.2601 166.653 26.5996 164.262 27.5074C161.893 28.4152 159.236 28.8691 156.291 28.8691ZM156.291 26.9096C157.221 26.9096 157.907 26.4889 158.35 25.6476C158.726 25.0055 158.981 23.8652 159.114 22.2268C159.18 21.3633 159.214 19.6363 159.214 17.0459C159.214 14.4332 159.158 12.5845 159.048 11.4996C158.981 10.1711 158.738 9.16372 158.317 8.47735C157.874 7.636 157.199 7.21532 156.291 7.21532C155.361 7.21532 154.664 7.636 154.199 8.47735C153.822 9.14158 153.579 10.149 153.468 11.4996C153.379 12.6509 153.335 14.4997 153.335 17.0459C153.335 19.9242 153.368 21.6512 153.435 22.2268C153.523 23.7545 153.767 24.8948 154.165 25.6476C154.63 26.4889 155.339 26.9096 156.291 26.9096Z" fill="#EE6178"/>
<path d="M130.996 26.5443C132.657 26.5443 133.974 25.869 134.948 24.5184C135.922 23.1678 136.553 21.5294 136.841 19.6031H138.9C138.59 21.9943 137.804 24.0313 136.542 25.714C135.834 26.6439 135.026 27.3413 134.118 27.8063C133.232 28.2491 132.247 28.537 131.162 28.6698C130.099 28.8026 128.705 28.8691 126.978 28.8691C124.542 28.8691 122.56 28.6366 121.033 28.1716C119.527 27.6845 118.232 26.8985 117.147 25.8136C115.022 23.6881 113.959 20.7655 113.959 17.0459C113.959 13.1269 114.911 10.2154 116.815 8.3113C118.055 7.07141 119.439 6.2522 120.966 5.85366C122.494 5.45513 124.498 5.25586 126.978 5.25586C129.258 5.25586 131.107 5.42192 132.524 5.75403C133.963 6.064 135.136 6.7393 136.044 7.77991C136.797 8.64341 137.384 9.68403 137.804 10.9018C138.225 12.1195 138.469 13.3262 138.535 14.5218H136.642C136.553 13.5255 136.31 12.507 135.911 11.4664C135.535 10.4036 134.937 9.49583 134.118 8.74304C133.299 7.96811 132.258 7.58065 130.996 7.58065C129.801 7.58065 128.837 8.10096 128.107 9.14158C127.465 9.96079 126.978 11.1675 126.645 12.7616C126.402 13.9794 126.28 15.4074 126.28 17.0459C126.28 19.6363 126.59 21.7286 127.21 23.3228C128.007 25.4704 129.269 26.5443 130.996 26.5443Z" fill="#EE6178"/>
<path d="M95.475 5.45532H105.173L115.468 28.7032H102.914L99.4272 20.9982H92.1207L89.1317 28.7032H86.7073L95.475 5.45532ZM98.4973 18.9723L95.475 12.2304L92.8514 18.9723H98.4973Z" fill="#EE6178"/>
<path d="M55.7092 5.45532H67.0011V15.8504H74.3407V5.45532H85.6326V28.7032H74.3407V18.0756H67.0011V28.7032H55.7092V5.45532Z" fill="#EE6178"/>
<path d="M46.1841 26.5443C47.8447 26.5443 49.162 25.869 50.1362 24.5184C51.1104 23.1678 51.7415 21.5294 52.0293 19.6031H54.0884C53.7784 21.9943 52.9924 24.0313 51.7304 25.714C51.0219 26.6439 50.2137 27.3413 49.306 27.8063C48.4203 28.2491 47.4351 28.537 46.3502 28.6698C45.2874 28.8026 43.8925 28.8691 42.1655 28.8691C39.7301 28.8691 37.7484 28.6366 36.2207 28.1716C34.7152 27.6845 33.4199 26.8985 32.335 25.8136C30.2095 23.6881 29.1467 20.7655 29.1467 17.0459C29.1467 13.1269 30.0988 10.2154 32.0029 8.3113C33.2428 7.07141 34.6266 6.2522 36.1543 5.85366C37.682 5.45513 39.6858 5.25586 42.1655 5.25586C44.4461 5.25586 46.2948 5.42192 47.7118 5.75403C49.151 6.064 50.3244 6.7393 51.2322 7.77991C51.985 8.64341 52.5717 9.68403 52.9924 10.9018C53.4131 12.1195 53.6566 13.3262 53.7231 14.5218H51.83C51.7415 13.5255 51.4979 12.507 51.0994 11.4664C50.723 10.4036 50.1252 9.49583 49.306 8.74304C48.4868 7.96811 47.4461 7.58065 46.1841 7.58065C44.9885 7.58065 44.0254 8.10096 43.2947 9.14158C42.6526 9.96079 42.1655 11.1675 41.8334 12.7616C41.5899 13.9794 41.4681 15.4074 41.4681 17.0459C41.4681 19.6363 41.7781 21.7286 42.398 23.3228C43.1951 25.4704 44.4571 26.5443 46.1841 26.5443Z" fill="#EE6178"/>
<path fill-rule="evenodd" clip-rule="evenodd" d="M8.37569 0.470156C8.52188 0.181678 8.81697 0 9.13934 0H17.993C18.3057 0 18.5936 0.171055 18.7441 0.446282C18.8945 0.72151 18.8837 1.05719 18.7158 1.32208L12.5566 11.0397H18.2786C18.6123 11.0397 18.9156 11.2342 19.056 11.5382C19.1963 11.8422 19.148 12.2004 18.9323 12.456L1.51064 33.1017C1.23722 33.4257 0.769203 33.5009 0.408713 33.2787C0.0482221 33.0566 -0.0968637 32.6036 0.0671131 32.2121L5.99311 18.0649H0.856912C0.558897 18.0649 0.28229 17.9095 0.126501 17.6544C-0.0292872 17.3993 -0.0418749 17.0813 0.0932623 16.8146L8.37569 0.470156ZM9.66475 1.72047L2.25415 16.3445H7.28294C7.56991 16.3445 7.83784 16.4887 7.99663 16.7287C8.15542 16.9687 8.18399 17.2726 8.07274 17.5382L3.80951 27.7158L16.4297 12.7602H10.9958C10.683 12.7602 10.3952 12.5891 10.2447 12.3139C10.0942 12.0387 10.105 11.703 10.2729 11.4381L16.4322 1.72047H9.66475Z" fill="#EE6178"/>
</svg>
